<?xml version="1.0" encoding="utf-8"?>
<!-- Generator: Adobe Illustrator 21.0.0, SVG Export Plug-In . SVG Version: 6.00 Build 0)  -->
<svg version="1.1" id="Layer_1" xmlns="http://www.w3.org/2000/svg" xmlns:xlink="http://www.w3.org/1999/xlink" x="0px" y="0px"
	 width="32px" height="32px" viewBox="0 0 32 32" enable-background="new 0 0 32 32" xml:space="preserve">
<path fill="#FFFFFF" d="M16,0C7.2,0,0,7.2,0,16c0,8.8,7.2,16,16,16c8.8,0,16-7.2,16-16C32,7.2,24.8,0,16,0z M19.5,13.3l-0.2,2.4
	h-2.5V24h-3.1v-8.3h-1.7v-2.4h1.7v-1.6c0-0.7,0-1.8,0.5-2.5C14.9,8.5,15.6,8,16.9,8c2.1,0,3,0.3,3,0.3l-0.4,2.5c0,0-0.7-0.2-1.3-0.2
	c-0.6,0-1.2,0.2-1.2,0.9v1.9H19.5z"/>
</svg>
