<?xml version="1.0" encoding="utf-8"?>
<!-- Generator: Adobe Illustrator 21.0.0, SVG Export Plug-In . SVG Version: 6.00 Build 0)  -->
<svg version="1.1" id="Layer_1" xmlns="http://www.w3.org/2000/svg" xmlns:xlink="http://www.w3.org/1999/xlink" x="0px" y="0px"
	 width="32px" height="32px" viewBox="0 0 32 32" enable-background="new 0 0 32 32" xml:space="preserve">
<g>
	<path fill="#FFFFFF" d="M22.2,11.3c-0.1-0.4-0.3-0.6-0.6-0.9c-0.3-0.3-0.5-0.5-0.9-0.6c-0.3-0.1-0.7-0.2-1.5-0.3
		c-0.8,0-1.1,0-3.2,0s-2.4,0-3.2,0c-0.8,0-1.2,0.2-1.5,0.3c-0.4,0.1-0.6,0.3-0.9,0.6c-0.3,0.3-0.5,0.5-0.6,0.9
		c-0.1,0.3-0.2,0.7-0.3,1.5c0,0.8,0,1.1,0,3.2c0,2.1,0,2.4,0,3.2c0,0.8,0.2,1.2,0.3,1.5c0.1,0.4,0.3,0.6,0.6,0.9
		c0.3,0.3,0.5,0.5,0.9,0.6c0.3,0.1,0.7,0.2,1.5,0.3c0.8,0,1.1,0,3.2,0s2.4,0,3.2,0c0.8,0,1.2-0.2,1.5-0.3c0.4-0.1,0.6-0.3,0.9-0.6
		c0.3-0.3,0.5-0.5,0.6-0.9c0.1-0.3,0.2-0.7,0.3-1.5c0-0.8,0-1.1,0-3.2c0-2.1,0-2.4,0-3.2C22.5,12,22.3,11.6,22.2,11.3z M16,20.1
		c-2.3,0-4.1-1.8-4.1-4.1s1.8-4.1,4.1-4.1c2.3,0,4.1,1.8,4.1,4.1S18.3,20.1,16,20.1z M20.3,12.7c-0.5,0-1-0.4-1-1c0-0.5,0.4-1,1-1
		c0.5,0,1,0.4,1,1C21.2,12.3,20.8,12.7,20.3,12.7z"/>
	<path fill="#FFFFFF" d="M16,0C7.2,0,0,7.2,0,16s7.2,16,16,16c8.8,0,16-7.2,16-16S24.8,0,16,0z M24,19.3c0,0.9-0.2,1.4-0.4,1.9
		c-0.2,0.5-0.5,1-0.9,1.4c-0.4,0.4-0.9,0.7-1.4,0.9c-0.5,0.2-1.1,0.3-1.9,0.4c-0.9,0-1.1,0-3.3,0c-2.2,0-2.4,0-3.3,0
		c-0.9,0-1.4-0.2-1.9-0.4c-0.5-0.2-1-0.5-1.4-0.9c-0.4-0.4-0.7-0.9-0.9-1.4c-0.2-0.5-0.3-1.1-0.4-1.9c0-0.9,0-1.1,0-3.3
		c0-2.2,0-2.4,0-3.3c0-0.9,0.2-1.4,0.4-1.9c0.2-0.5,0.5-1,0.9-1.4c0.4-0.4,0.9-0.7,1.4-0.9c0.5-0.2,1.1-0.3,1.9-0.4
		c0.9,0,1.1,0,3.3,0c2.2,0,2.4,0,3.3,0c0.9,0,1.4,0.2,1.9,0.4c0.5,0.2,1,0.5,1.4,0.9c0.4,0.4,0.7,0.9,0.9,1.4
		c0.2,0.5,0.3,1.1,0.4,1.9c0,0.9,0,1.1,0,3.3C24,18.2,24,18.4,24,19.3z"/>
	<circle fill="#FFFFFF" cx="16" cy="16" r="2.7"/>
</g>
</svg>
