<?xml version="1.0" encoding="utf-8"?>
<!-- Generator: Adobe Illustrator 21.0.0, SVG Export Plug-In . SVG Version: 6.00 Build 0)  -->
<svg version="1.1" id="Layer_1" xmlns="http://www.w3.org/2000/svg" xmlns:xlink="http://www.w3.org/1999/xlink" x="0px" y="0px"
	 width="70px" height="70px" viewBox="0 0 70 70" enable-background="new 0 0 70 70" xml:space="preserve">
<g>
	<g>
		<path fill="#00A1E4" d="M37.7,31.4h-1.2c-0.1,0-0.2,0-0.3-0.1c-0.1-0.1-0.2-0.2-0.2-0.3l-0.6-1.7h-3.5l-0.6,1.7
			c0,0.1-0.1,0.2-0.2,0.2c-0.1,0.1-0.2,0.1-0.3,0.1h-1.2l3.3-8.5h1.6L37.7,31.4z M32.2,28.2h2.7l-1-2.8c0-0.1-0.1-0.3-0.2-0.4
			c-0.1-0.2-0.1-0.4-0.2-0.6c-0.1,0.2-0.1,0.4-0.2,0.6c-0.1,0.2-0.1,0.3-0.2,0.5L32.2,28.2z"/>
	</g>
	<g>
		<circle fill="none" stroke="#00A1E4" stroke-width="1.5" stroke-miterlimit="10" cx="35" cy="35" r="34.2"/>
		
			<rect x="17.9" y="15.9" fill="none" stroke="#00A1E4" stroke-width="1.5" stroke-linecap="round" stroke-linejoin="round" stroke-miterlimit="10" width="31.3" height="35.2"/>
		<g>
			
				<line fill="none" stroke="#00A1E4" stroke-width="1.5" stroke-linecap="round" stroke-linejoin="round" stroke-miterlimit="10" x1="43.3" y1="35.3" x2="23.7" y2="35.3"/>
			
				<line fill="none" stroke="#00A1E4" stroke-width="1.5" stroke-linecap="round" stroke-linejoin="round" stroke-miterlimit="10" x1="43.3" y1="38.2" x2="23.7" y2="38.2"/>
			
				<line fill="none" stroke="#00A1E4" stroke-width="1.5" stroke-linecap="round" stroke-linejoin="round" stroke-miterlimit="10" x1="43.3" y1="41.2" x2="23.7" y2="41.2"/>
			
				<line fill="none" stroke="#00A1E4" stroke-width="1.5" stroke-linecap="round" stroke-linejoin="round" stroke-miterlimit="10" x1="33.5" y1="44.1" x2="23.7" y2="44.1"/>
		</g>
		
			<polyline fill="none" stroke="#00A1E4" stroke-width="1.5" stroke-linecap="round" stroke-linejoin="round" stroke-miterlimit="10" points="
			49.2,18.9 52.1,18.9 52.1,54.1 20.8,54.1 20.8,51.1 		"/>
	</g>
</g>
</svg>
