<?xml version="1.0" encoding="utf-8"?>
<!-- Generator: Adobe Illustrator 21.0.0, SVG Export Plug-In . SVG Version: 6.00 Build 0)  -->
<svg version="1.1" id="Layer_1" xmlns="http://www.w3.org/2000/svg" xmlns:xlink="http://www.w3.org/1999/xlink" x="0px" y="0px"
	 width="70px" height="70px" viewBox="0 0 70 70" enable-background="new 0 0 70 70" xml:space="preserve">
<g>
	<circle fill="none" stroke="#00A1E4" stroke-width="1.5" stroke-miterlimit="10" cx="35" cy="35" r="34.2"/>
	<g>
		<path fill="#00A1E4" d="M45.7,14.8c0.2,0,0.4,0.1,0.6,0.2c0.3,0.3,0.3,0.8,0,1.2L43.5,19c0,0-0.1,0.1-0.1,0.1l1.5,1.5
			c0.2,0.2,0.2,0.4,0.2,0.6c0,0.2-0.1,0.4-0.2,0.6l-2.9,2.9c0,0,0.1,0.1,0.1,0.1c2.3,2.3,3.5,5.3,3.5,8.5c0,3.2-1.2,6.2-3.5,8.5
			c-1.1,1.1-2.4,2-3.8,2.6c0,0,0.1,0.1,0.1,0.1l4.9,7.4c0.2,0.3,0.2,0.6,0,0.8c-0.1,0.3-0.4,0.4-0.7,0.4H27.7
			c-0.3,0-0.5-0.1-0.7-0.4c-0.2-0.2-0.2-0.5-0.1-0.8l3.2-7.1c-1.9-0.6-3.7-1.6-5.2-3.1c-0.1-0.1-0.1-0.1-0.1-0.2h-7
			c-0.5,0-0.8-0.4-0.8-0.8c0-0.5,0.4-0.8,0.8-0.8h14.8c0.5,0,0.8,0.4,0.8,0.8c0,0.5-0.4,0.8-0.8,0.8h-5.4c1.8,1.3,3.9,2.1,6.2,2.1
			c2.8,0,5.4-1.1,7.4-3c2-2,3-4.6,3-7.4c0-2.8-1.1-5.4-3-7.4c0,0-0.1-0.1-0.1-0.1l-9.9,9.9c-0.2,0.2-0.4,0.2-0.6,0.2
			c-0.2,0-0.4-0.1-0.6-0.2l-4.2-4.2c-0.3-0.3-0.3-0.8,0-1.2l14-14c0.2-0.2,0.4-0.2,0.6-0.2c0.2,0,0.4,0.1,0.6,0.2l1.5,1.5
			c0,0,0.1-0.1,0.1-0.1l2.8-2.8C45.3,14.9,45.5,14.8,45.7,14.8 M45.7,13.3c-0.6,0-1.2,0.2-1.6,0.7l-1.9,1.9l-0.5-0.5
			c-0.4-0.4-1-0.7-1.6-0.7c-0.6,0-1.2,0.2-1.6,0.7l-14,14c-0.4,0.4-0.7,1-0.7,1.6c0,0.6,0.2,1.2,0.7,1.6l4.2,4.2
			c0.4,0.4,1,0.7,1.6,0.7c0.6,0,1.2-0.2,1.6-0.7l8.8-8.8c1.1,1.5,1.7,3.3,1.7,5.3c0,2.4-0.9,4.6-2.6,6.3c-1.4,1.4-3.2,2.3-5.2,2.5
			c0.3-0.4,0.4-0.8,0.4-1.3c0-1.3-1-2.3-2.3-2.3H18c-1.3,0-2.3,1-2.3,2.3c0,1.3,1,2.3,2.3,2.3h6.3c1.1,1.1,2.5,2,3.9,2.6l-2.6,5.6
			c-0.3,0.7-0.3,1.5,0.2,2.2c0.4,0.7,1.2,1.1,2,1.1h14.8c0.9,0,1.6-0.5,2-1.2c0.4-0.7,0.4-1.7-0.1-2.4L40.5,45
			c1-0.6,1.9-1.3,2.7-2.1c2.6-2.6,4-6,4-9.6c0-3.2-1.1-6.2-3.1-8.6l1.9-1.9c0.4-0.4,0.7-1,0.7-1.6c0-0.6-0.2-1.2-0.7-1.6l-0.5-0.5
			l1.9-1.9c0.9-0.9,0.9-2.4,0-3.3C46.9,13.6,46.3,13.3,45.7,13.3L45.7,13.3z"/>
	</g>
</g>
</svg>
